<svg xmlns="http://www.w3.org/2000/svg" viewBox="0 0 200 60" fill="none">
  <!-- SEP logo with quantum field visualization -->
  <defs>
    <linearGradient id="gradient1" x1="0%" y1="0%" x2="100%" y2="0%">
      <stop offset="0%" stop-color="#667eea"/>
      <stop offset="100%" stop-color="#764ba2"/>
    </linearGradient>
    <linearGradient id="gradient2" x1="0%" y1="0%" x2="100%" y2="100%">
      <stop offset="0%" stop-color="#667eea" stop-opacity="0.8"/>
      <stop offset="50%" stop-color="#764ba2" stop-opacity="0.6"/>
      <stop offset="100%" stop-color="#667eea" stop-opacity="0.4"/>
    </linearGradient>
  </defs>
  
  <!-- Background quantum field -->
  <rect width="200" height="60" fill="none"/>
  
  <!-- Quantum field pattern -->
  <g opacity="0.3">
    <circle cx="20" cy="15" r="2" fill="url(#gradient2)"/>
    <circle cx="35" cy="25" r="1.5" fill="url(#gradient2)"/>
    <circle cx="50" cy="35" r="2.5" fill="url(#gradient2)"/>
    <circle cx="65" cy="20" r="1" fill="url(#gradient2)"/>
    <circle cx="80" cy="40" r="2" fill="url(#gradient2)"/>
    <line x1="20" y1="15" x2="35" y2="25" stroke="url(#gradient2)" stroke-width="0.5"/>
    <line x1="35" y1="25" x2="50" y2="35" stroke="url(#gradient2)" stroke-width="0.5"/>
    <line x1="50" y1="35" x2="65" y2="20" stroke="url(#gradient2)" stroke-width="0.5"/>
    <line x1="65" y1="20" x2="80" y2="40" stroke="url(#gradient2)" stroke-width="0.5"/>
  </g>
  
  <!-- SEP Text -->
  <text x="100" y="35" font-family="Inter, sans-serif" font-size="24" font-weight="700" fill="url(#gradient1)">SEP</text>
  
  <!-- Dynamics text -->
  <text x="100" y="50" font-family="Inter, sans-serif" font-size="10" font-weight="400" fill="#888">DYNAMICS</text>
  
  <!-- Quantum symbol -->
  <g transform="translate(170, 20)">
    <circle cx="10" cy="10" r="8" fill="none" stroke="url(#gradient1)" stroke-width="2"/>
    <circle cx="10" cy="10" r="3" fill="url(#gradient1)"/>
    <path d="M 2 10 Q 10 2 18 10 Q 10 18 2 10" fill="none" stroke="url(#gradient1)" stroke-width="1.5"/>
  </g>
</svg>
