<svg width="120" height="120" viewBox="0 0 120 120" fill="none" xmlns="http://www.w3.org/2000/svg">
  <!-- Background Circle -->
  <circle cx="60" cy="60" r="58" stroke="url(#gradient1)" stroke-width="4" fill="none"/>
  
  <!-- Quantum Wave Pattern -->
  <path d="M20 60 Q35 40, 50 60 T80 60 T110 60" stroke="url(#gradient2)" stroke-width="3" fill="none" opacity="0.8">
    <animate attributeName="d" 
      values="M20 60 Q35 40, 50 60 T80 60 T110 60;
              M20 60 Q35 80, 50 60 T80 60 T110 60;
              M20 60 Q35 40, 50 60 T80 60 T110 60"
      dur="4s" repeatCount="indefinite"/>
  </path>
  
  <!-- Central S -->
  <path d="M45 45 C45 35, 55 35, 60 35 C70 35, 75 40, 75 45 C75 50, 70 52, 60 55 C50 58, 45 60, 45 65 C45 70, 50 75, 60 75 C65 75, 75 75, 75 65" 
        stroke="url(#gradient1)" stroke-width="4" fill="none" stroke-linecap="round"/>
  
  <!-- Quantum Dots -->
  <circle cx="30" cy="30" r="3" fill="#00d4ff">
    <animate attributeName="opacity" values="0;1;0" dur="2s" repeatCount="indefinite"/>
  </circle>
  <circle cx="90" cy="30" r="3" fill="#0066ff">
    <animate attributeName="opacity" values="0;1;0" dur="2s" begin="0.5s" repeatCount="indefinite"/>
  </circle>
  <circle cx="90" cy="90" r="3" fill="#ff0066">
    <animate attributeName="opacity" values="0;1;0" dur="2s" begin="1s" repeatCount="indefinite"/>
  </circle>
  <circle cx="30" cy="90" r="3" fill="#00d4ff">
    <animate attributeName="opacity" values="0;1;0" dur="2s" begin="1.5s" repeatCount="indefinite"/>
  </circle>
  
  <!-- Orbital Rings -->
  <ellipse cx="60" cy="60" rx="40" ry="15" stroke="url(#gradient3)" stroke-width="1" fill="none" opacity="0.3" transform="rotate(45 60 60)">
    <animateTransform attributeName="transform" type="rotate" from="0 60 60" to="360 60 60" dur="20s" repeatCount="indefinite"/>
  </ellipse>
  <ellipse cx="60" cy="60" rx="40" ry="15" stroke="url(#gradient3)" stroke-width="1" fill="none" opacity="0.3" transform="rotate(-45 60 60)">
    <animateTransform attributeName="transform" type="rotate" from="0 60 60" to="-360 60 60" dur="15s" repeatCount="indefinite"/>
  </ellipse>
  
  <!-- Gradients -->
  <defs>
    <linearGradient id="gradient1" x1="0%" y1="0%" x2="100%" y2="100%">
      <stop offset="0%" style="stop-color:#0066ff;stop-opacity:1" />
      <stop offset="50%" style="stop-color:#00d4ff;stop-opacity:1" />
      <stop offset="100%" style="stop-color:#ff0066;stop-opacity:1" />
    </linearGradient>
    <linearGradient id="gradient2" x1="0%" y1="0%" x2="100%" y2="0%">
      <stop offset="0%" style="stop-color:#0066ff;stop-opacity:0.6" />
      <stop offset="50%" style="stop-color:#00d4ff;stop-opacity:0.8" />
      <stop offset="100%" style="stop-color:#0066ff;stop-opacity:0.6" />
    </linearGradient>
    <radialGradient id="gradient3">
      <stop offset="0%" style="stop-color:#00d4ff;stop-opacity:0.8" />
      <stop offset="100%" style="stop-color:#0066ff;stop-opacity:0.1" />
    </radialGradient>
  </defs>
</svg>